<svg width="16" height="16" viewBox="0 0 16 16" xmlns="http://www.w3.org/2000/svg"><title>Search Icon</title><g id="Page-1" fill="none" fill-rule="evenodd"><g id="Group"><g id="search"><path d="M5.407 9.766L1.13 14.042l.828.827 4.276-4.276a6 6 0 0 1-.827-.827zm4.611-8.556a4.772 4.772 0 1 0 0 9.543 4.772 4.772 0 0 0 0-9.543zM6.911 5.47a.467.467 0 1 1 0-.935.467.467 0 0 1 0 .934zm1.03-1.134A.818.818 0 1 1 7.942 2.7a.818.818 0 0 1-.003 1.637zm1.652-1.124a.468.468 0 1 1 .005-.937.468.468 0 0 1-.005.937z" id="Shape"/><path d="M10.018.017a5.966 5.966 0 0 0-5.23 8.833 1.41 1.41 0 0 0-.399.28L.431 13.088a1.412 1.412 0 0 0 0 1.996l.484.484a1.412 1.412 0 0 0 1.997 0L6.87 11.61c.115-.115.21-.25.28-.398A5.965 5.965 0 1 0 10.018.017zm-8.06 14.852l-.828-.827 4.277-4.276a6 6 0 0 0 .827.827l-4.276 4.276zm8.06-4.115a4.772 4.772 0 1 1 .002-9.545 4.772 4.772 0 0 1-.003 9.545h.001z" id="Shape" fill="#D93760" fill-rule="nonzero"/><circle id="Oval" fill="#D93760" fill-rule="nonzero" cx="7.94" cy="3.518" r="1"/><circle id="Oval" fill="#D93760" fill-rule="nonzero" cx="9.595" cy="2.744" r="1"/><circle id="Oval" fill="#D93760" fill-rule="nonzero" cx="6.911" cy="5.002" r="1"/></g></g></g></svg>